<!--?xml version="1.0" standalone="no"?-->
              <svg id="sw-js-blob-svg" viewBox="0 0 100 100" xmlns="http://www.w3.org/2000/svg" version="1.1">
                    <defs> 
                        <linearGradient id="sw-gradient" x1="0" x2="1" y1="1" y2="0">
                            <stop id="stop1" stop-color="rgba(255, 208.204, 0, 1)" offset="0%"></stop>
                            <stop id="stop2" stop-color="rgba(251, 224.789, 31, 1)" offset="100%"></stop>
                        </linearGradient>
                    </defs>
                <path fill="url(#sw-gradient)" d="M19,-29.6C26.1,-25,34.4,-22.3,37.6,-16.7C40.8,-11.2,39,-2.9,37.2,4.9C35.4,12.8,33.6,20.2,29.2,25.2C24.7,30.2,17.6,32.9,10.3,35C3,37,-4.4,38.6,-11,36.9C-17.6,35.2,-23.5,30.3,-27.2,24.4C-30.9,18.6,-32.5,11.7,-34.8,4.2C-37,-3.2,-39.9,-11.4,-37.2,-16.9C-34.5,-22.4,-26.3,-25.2,-19.1,-29.8C-12,-34.4,-6,-40.8,0,-40.7C6,-40.7,11.9,-34.2,19,-29.6Z" width="100%" height="100%" transform="translate(50 50)" stroke-width="0" style="transition: 0.3s;"></path>
              </svg>