<!--?xml version="1.0" standalone="no"?-->
              <svg id="sw-js-blob-svg" viewBox="0 0 100 100" xmlns="http://www.w3.org/2000/svg" version="1.1">
                    <defs> 
                        <linearGradient id="sw-gradient" x1="0" x2="1" y1="1" y2="0">
                            <stop id="stop1" stop-color="rgba(237.156, 230.851, 105.789, 0.51)" offset="0%"></stop>
                            <stop id="stop2" stop-color="rgba(251, 224.789, 31, 1)" offset="100%"></stop>
                        </linearGradient>
                    </defs>
                <path fill="url(#sw-gradient)" d="M26.4,-29.5C34,-25.2,39.6,-16.6,39.9,-8C40.2,0.5,35.2,9,29.6,15.6C24,22.2,17.8,27,10.9,29.2C4.1,31.3,-3.4,30.7,-11.8,29C-20.1,27.4,-29.3,24.8,-34.6,18.5C-40,12.3,-41.5,2.3,-39.9,-7.1C-38.3,-16.5,-33.6,-25.4,-26.4,-29.8C-19.2,-34.1,-9.6,-33.9,-0.1,-33.8C9.5,-33.7,18.9,-33.8,26.4,-29.5Z" width="100%" height="100%" transform="translate(50 50)" stroke-width="0" style="transition: 0.3s;"></path>
              </svg>