<!--?xml version="1.0" standalone="no"?-->
              <svg id="sw-js-blob-svg" viewBox="0 0 100 100" xmlns="http://www.w3.org/2000/svg" version="1.1">
                    <defs> 
                        <linearGradient id="sw-gradient" x1="0" x2="1" y1="1" y2="0">
                            <stop id="stop1" stop-color="rgba(237.469, 229.675, 75.089, 1)" offset="0%"></stop>
                            <stop id="stop2" stop-color="rgba(255, 190.062, 0, 1)" offset="100%"></stop>
                        </linearGradient>
                    </defs>
                <path fill="url(#sw-gradient)" d="M16,-30.7C20.6,-25,24.1,-20.5,26.7,-15.5C29.3,-10.6,31,-5.3,31.1,0C31.1,5.3,29.4,10.7,26.4,15C23.4,19.2,19.1,22.4,14.5,26.7C9.9,31,4.9,36.4,-0.5,37.2C-5.9,38.1,-11.9,34.5,-16.9,30.4C-21.9,26.3,-26,21.9,-31.3,16.7C-36.7,11.6,-43.3,5.8,-42.4,0.5C-41.6,-4.8,-33.3,-9.7,-29.1,-16.7C-24.9,-23.8,-24.7,-33.2,-20.5,-39.1C-16.4,-45,-8.2,-47.5,-1.2,-45.3C5.7,-43.2,11.4,-36.3,16,-30.7Z" width="100%" height="100%" transform="translate(50 50)" stroke-width="0" style="transition: 0.3s;" stroke="url(#sw-gradient)"></path>
              </svg>