<!--?xml version="1.0" standalone="no"?-->
              <svg id="sw-js-blob-svg" viewBox="0 0 100 100" xmlns="http://www.w3.org/2000/svg" version="1.1">
                    <defs> 
                        <linearGradient id="sw-gradient" x1="0" x2="1" y1="1" y2="0">
                            <stop id="stop1" stop-color="rgba(237.469, 229.675, 75.089, 1)" offset="0%"></stop>
                            <stop id="stop2" stop-color="rgba(255, 230.066, 157.089, 1)" offset="100%"></stop>
                        </linearGradient>
                    </defs>
                <path fill="url(#sw-gradient)" d="M16.9,-29.2C22.8,-26,28.8,-23.1,32,-18.3C35.3,-13.4,35.6,-6.7,32.1,-2C28.6,2.7,21.4,5.4,17.7,9.4C14,13.4,13.9,18.6,11.5,25.6C9.2,32.6,4.6,41.3,-0.9,42.9C-6.4,44.4,-12.8,38.9,-15.2,31.9C-17.7,25,-16.1,16.7,-15.6,11.1C-15.1,5.6,-15.7,2.8,-18.8,-1.8C-21.8,-6.3,-27.3,-12.6,-26.1,-15.2C-24.8,-17.8,-17,-16.8,-11.5,-20.2C-6.1,-23.6,-3,-31.5,1.3,-33.7C5.6,-35.9,11.1,-32.4,16.9,-29.2Z" width="100%" height="100%" transform="translate(50 50)" stroke-width="0" style="transition: 0.3s;" stroke="url(#sw-gradient)"></path>
              </svg>