<!--?xml version="1.0" standalone="no"?-->
              <svg id="sw-js-blob-svg" viewBox="0 0 100 100" xmlns="http://www.w3.org/2000/svg" version="1.1">
                    <defs> 
                        <linearGradient id="sw-gradient" x1="0" x2="1" y1="1" y2="0">
                            <stop id="stop1" stop-color="rgba(241.322, 255, 0, 1)" offset="0%"></stop>
                            <stop id="stop2" stop-color="rgba(255, 190.062, 0, 1)" offset="100%"></stop>
                        </linearGradient>
                    </defs>
                <path fill="url(#sw-gradient)" d="M20.8,-34C28.1,-31.9,35.7,-28.5,38.5,-22.6C41.4,-16.7,39.4,-8.3,35.9,-2C32.4,4.3,27.3,8.5,25,15.4C22.7,22.4,23.4,31.9,19.7,34.7C16,37.5,8,33.6,-0.2,33.8C-8.3,34.1,-16.6,38.7,-19.5,35.4C-22.3,32.1,-19.8,21,-22.2,13.8C-24.7,6.6,-32.3,3.3,-32.1,0.1C-32,-3.2,-24.3,-6.3,-19.3,-9.3C-14.4,-12.2,-12.2,-14.8,-9.5,-19.5C-6.7,-24.1,-3.4,-30.7,1.7,-33.7C6.8,-36.7,13.6,-36.1,20.8,-34Z" width="100%" height="100%" transform="translate(50 50)" stroke-width="0" style="transition: 0.3s;" stroke="url(#sw-gradient)"></path>
              </svg>