<!--?xml version="1.0" standalone="no"?-->
              <svg id="sw-js-blob-svg" viewBox="0 0 100 100" xmlns="http://www.w3.org/2000/svg" version="1.1">
                    <defs> 
                        <linearGradient id="sw-gradient" x1="0" x2="1" y1="1" y2="0">
                            <stop id="stop1" stop-color="rgba(241.322, 255, 0, 1)" offset="0%"></stop>
                            <stop id="stop2" stop-color="rgba(255, 190.062, 0, 1)" offset="100%"></stop>
                        </linearGradient>
                    </defs>
                <path fill="url(#sw-gradient)" d="M21.2,-34.5C27.7,-32.9,33.3,-27.7,36.3,-21.3C39.2,-15,39.5,-7.5,37.6,-1.1C35.8,5.3,31.7,10.6,28.4,16.4C25.1,22.3,22.7,28.6,18.1,34.3C13.5,39.9,6.7,44.9,0.5,44.1C-5.8,43.2,-11.6,36.6,-18.7,32.4C-25.8,28.2,-34.2,26.4,-36.2,21.4C-38.2,16.4,-33.9,8.2,-31.1,1.6C-28.3,-5,-27,-9.9,-25.9,-16.6C-24.9,-23.3,-24,-31.8,-19.8,-34.6C-15.5,-37.4,-7.7,-34.6,-0.2,-34.2C7.3,-33.9,14.7,-36,21.2,-34.5Z" width="100%" height="100%" transform="translate(50 50)" stroke-width="0" style="transition: 0.3s;" stroke="url(#sw-gradient)"></path>
              </svg>