<!--?xml version="1.0" standalone="no"?-->
              <svg id="sw-js-blob-svg" viewBox="0 0 100 100" xmlns="http://www.w3.org/2000/svg" version="1.1">
                    <defs> 
                        <linearGradient id="sw-gradient" x1="0" x2="1" y1="1" y2="0">
                            <stop id="stop1" stop-color="rgba(242.165, 222.449, 1.367, 1)" offset="0%"></stop>
                            <stop id="stop2" stop-color="rgba(232.915, 225.482, 88.247, 1)" offset="100%"></stop>
                        </linearGradient>
                    </defs>
                <path fill="url(#sw-gradient)" d="M14.8,-25.7C19.5,-20.1,23.6,-16.4,26.2,-11.7C28.7,-7,29.7,-1.3,28.3,3.6C26.9,8.6,23.2,12.7,19.9,18.1C16.6,23.5,13.7,30.2,8.5,34C3.3,37.9,-4.2,39,-9.4,35.8C-14.6,32.6,-17.5,25.1,-22.2,19.4C-26.9,13.7,-33.5,9.7,-35.2,4.5C-36.9,-0.8,-33.6,-7.3,-29.8,-12.7C-26,-18.1,-21.5,-22.3,-16.4,-27.7C-11.4,-33.1,-5.7,-39.7,-0.3,-39.3C5.1,-38.8,10.2,-31.3,14.8,-25.7Z" width="100%" height="100%" transform="translate(50 50)" stroke-width="0" style="transition: 0.3s;" stroke="url(#sw-gradient)"></path>
              </svg>